# xmcd
#
# Track frame offsets:
#	150
#	12690
#	24687
#	38555
#	50987
#	66527
#	78927
#	92957
#	114755
#	126555
#	138287
#	151267
#	164792
#	180147
#	192947
#	206502
#	227492
#
# Disc length: 3224 seconds
#
# Revision: 1
# Processed by: cddbd v1.5.2PL0 Copyright (c) Steve Scherf et al.
# Submitted via: audiograbber 1.83.01
#
DISCID=ea0c9611
DTITLE=Dennis, Trevor - The Best of .....
DYEAR=1900
DGENRE=
TTITLE0=Never Had an Angel by My Side
TTITLE1=Retread Goannas
TTITLE2=Good Ole Boys
TTITLE3=Mothers
TTITLE4=Tamworth
TTITLE5=Waltzing Matilda
TTITLE6=Six Days
TTITLE7=Bobby McGee
TTITLE8=Two Beers Away
TTITLE9=Why Oh Why
TTITLE10=House is a Home
TTITLE11=Song and Dance Man
TTITLE12=Ghost Riders in the Sky
TTITLE13=Thistles on the Hillside
TTITLE14=Lights on the Hill
TTITLE15=Photograph Album
TTITLE16=Old Desperado's Like Me
EXTD=
EXTT0=
EXTT1=
EXTT2=
EXTT3=
EXTT4=
EXTT5=
EXTT6=
EXTT7=
EXTT8=
EXTT9=
EXTT10=
EXTT11=
EXTT12=
EXTT13=
EXTT14=
EXTT15=
EXTT16=
PLAYORDER=
